<svg width="800" height="500" xmlns="http://www.w3.org/2000/svg">
  <style>
    .robot { fill: #4CAF50; stroke: #388E3C; stroke-width: 2px; rx: 10; ry: 10; }
    .sensor { fill: #2196F3; stroke: #0D47A1; stroke-width: 2px; rx: 10; ry: 10; }
    .environment { fill: #FFC107; stroke: #FF8F00; stroke-width: 2px; rx: 10; ry: 10; }
    .connection { stroke: #666; stroke-width: 2px; marker-end: url(#arrowhead); }
    .text { fill: black; font-family: Arial, sans-serif; font-size: 14px; text-anchor: middle; dominant-baseline: middle; }
    .title { fill: black; font-family: Arial, sans-serif; font-size: 16px; font-weight: bold; text-anchor: middle; }
    .label { fill: black; font-family: Arial, sans-serif; font-size: 12px; text-anchor: middle; }
  </style>

  <!-- Title -->
  <text x="400" y="30" class="title">Gazebo Simulation Architecture for Humanoid Robotics</text>

  <!-- Humanoid Robot Model -->
  <rect x="300" y="100" width="200" height="250" class="robot"/>
  <text x="400" y="130" class="text">Humanoid</text>
  <text x="400" y="150" class="text">Robot Model</text>

  <!-- Robot Parts -->
  <circle cx="400" cy="110" r="30" class="robot"/>
  <text x="400" y="110" class="text">Head</text>

  <rect x="330" y="140" width="140" height="200" class="robot"/>
  <text x="400" y="240" class="text">Torso</text>

  <rect x="250" y="160" width="50" height="150" class="robot"/>
  <text x="275" y="235" class="text">Left</text>
  <text x="275" y="255" class="text">Arm</text>

  <rect x="450" y="160" width="50" height="150" class="robot"/>
  <text x="475" y="235" class="text">Right</text>
  <text x="475" y="255" class="text">Arm</text>

  <rect x="350" y="350" width="40" height="100" class="robot"/>
  <text x="370" y="400" class="text">Left</text>
  <text x="370" y="420" class="text">Leg</text>

  <rect x="410" y="350" width="40" height="100" class="robot"/>
  <text x="430" y="400" class="text">Right</text>
  <text x="430" y="420" class="text">Leg</text>

  <!-- Sensors -->
  <circle cx="380" cy="90" r="15" class="sensor"/>
  <text x="380" y="90" class="text">Cam</text>

  <circle cx="420" cy="90" r="15" class="sensor"/>
  <text x="420" y="90" class="text">IMU</text>

  <circle cx="350" cy="370" r="15" class="sensor"/>
  <text x="350" y="370" class="text">FOOT</text>

  <circle cx="450" cy="370" r="15" class="sensor"/>
  <text x="450" y="370" class="text">FOOT</text>

  <!-- Environment -->
  <rect x="100" y="200" width="600" height="250" class="environment"/>
  <text x="400" y="330" class="text">Simulation Environment</text>
  <text x="400" y="350" class="text">(Ground, Obstacles, etc.)</text>

  <!-- Physics Engine -->
  <rect x="550" y="100" width="150" height="80" class="environment"/>
  <text x="625" y="120" class="text">ODE Physics</text>
  <text x="625" y="140" class="text">Engine</text>

  <!-- Gazebo Server -->
  <rect x="100" y="100" width="150" height="80" class="environment"/>
  <text x="175" y="120" class="text">Gazebo</text>
  <text x="175" y="140" class="text">Server</text>

  <!-- Connections -->
  <line x1="250" y1="140" x2="300" y2="140" class="connection"/>
  <line x1="550" y1="140" x2="500" y2="140" class="connection"/>
  <line x1="400" y1="350" x2="400" y2="450" class="connection"/>
  <line x1="350" y1="200" x2="250" y2="250" class="connection"/>
  <line x1="450" y1="200" x2="550" y2="250" class="connection"/>

  <!-- ROS 2 Interface -->
  <rect x="175" y="50" width="350" height="30" fill="#9C27B0" stroke="#7B1FA2" stroke-width="2"/>
  <text x="350" y="65" class="text" fill="white">ROS 2 Interface (gazebo_ros_pkgs)</text>

  <!-- Legend -->
  <text x="650" y="450" class="label" font-weight="bold">Legend:</text>
  <rect x="620" y="470" width="20" height="15" class="robot"/>
  <text x="670" y="480" class="label">Robot Model</text>

  <circle cx="630" cy="500" r="8" class="sensor"/>
  <text x="670" y="500" class="label">Sensors</text>

  <rect x="620" y="520" width="20" height="15" class="environment"/>
  <text x="670" y="525" class="label">Environment</text>

  <!-- Arrowhead definition -->
  <defs>
    <marker id="arrowhead" markerWidth="10" markerHeight="7"
      refX="0" refY="3.5" orient="auto">
      <polygon points="0 0, 10 3.5, 0 7" fill="#666" />
    </marker>
  </defs>
</svg>