<svg width="800" height="600" xmlns="http://www.w3.org/2000/svg">
  <style>
    .link { fill: #E0E0E0; stroke: #666; stroke-width: 2px; }
    .joint { fill: #FFC107; stroke: #FF8F00; stroke-width: 2px; }
    .base { fill: #4CAF50; stroke: #388E3C; stroke-width: 3px; }
    .head { fill: #2196F3; stroke: #0D47A1; stroke-width: 2px; }
    .arm { fill: #FF9800; stroke: #EF6C00; stroke-width: 2px; }
    .leg { fill: #9C27B0; stroke: #4A148C; stroke-width: 2px; }
    .text { fill: black; font-family: Arial, sans-serif; font-size: 12px; text-anchor: middle; }
    .title { fill: black; font-family: Arial, sans-serif; font-size: 16px; font-weight: bold; text-anchor: middle; }
    .joint-label { fill: white; font-family: Arial, sans-serif; font-size: 10px; text-anchor: middle; dominant-baseline: middle; }
  </style>

  <!-- Title -->
  <text x="400" y="30" class="title">Humanoid Robot URDF Structure</text>

  <!-- Base Link (Torso) -->
  <rect x="350" y="150" width="100" height="200" class="base"/>
  <text x="400" y="140" class="text">base_link</text>

  <!-- Head -->
  <circle cx="400" cy="120" r="30" class="head"/>
  <text x="400" y="100" class="text">head_link</text>

  <!-- Neck Joint -->
  <circle cx="400" cy="150" r="8" class="joint"/>
  <text x="400" y="165" class="joint-label">neck_joint</text>

  <!-- Left Arm -->
  <line x1="450" y1="170" x2="520" y2="170" stroke="#FF9800" stroke-width="12" stroke-linecap="round"/>
  <text x="485" y="160" class="text">left_upper_arm</text>

  <line x1="520" y1="170" x2="580" y2="170" stroke="#FF9800" stroke-width="10" stroke-linecap="round"/>
  <text x="550" y="160" class="text">left_forearm</text>

  <!-- Right Arm -->
  <line x1="350" y1="170" x2="280" y2="170" stroke="#FF9800" stroke-width="12" stroke-linecap="round"/>
  <text x="315" y="160" class="text">right_upper_arm</text>

  <line x1="280" y1="170" x2="220" y2="170" stroke="#FF9800" stroke-width="10" stroke-linecap="round"/>
  <text x="250" y="160" class="text">right_forearm</text>

  <!-- Shoulder Joints -->
  <circle cx="450" cy="170" r="8" class="joint"/>
  <text x="450" y="185" class="joint-label">left_shoulder</text>

  <circle cx="350" cy="170" r="8" class="joint"/>
  <text x="350" y="185" class="joint-label">right_shoulder</text>

  <!-- Elbow Joints -->
  <circle cx="520" cy="170" r="8" class="joint"/>
  <text x="520" y="185" class="joint-label">left_elbow</text>

  <circle cx="280" cy="170" r="8" class="joint"/>
  <text x="280" y="185" class="joint-label">right_elbow</text>

  <!-- Left Leg -->
  <line x1="380" y1="350" x2="380" y2="450" stroke="#9C27B0" stroke-width="14" stroke-linecap="round"/>
  <text x="380" y="400" class="text">left_thigh</text>

  <line x1="380" y1="450" x2="380" y2="530" stroke="#9C27B0" stroke-width="12" stroke-linecap="round"/>
  <text x="380" y="490" class="text">left_shin</text>

  <!-- Right Leg -->
  <line x1="420" y1="350" x2="420" y2="450" stroke="#9C27B0" stroke-width="14" stroke-linecap="round"/>
  <text x="420" y="400" class="text">right_thigh</text>

  <line x1="420" y1="450" x2="420" y2="530" stroke="#9C27B0" stroke-width="12" stroke-linecap="round"/>
  <text x="420" y="490" class="text">right_shin</text>

  <!-- Hip Joints -->
  <circle cx="380" cy="350" r="8" class="joint"/>
  <text x="380" y="365" class="joint-label">left_hip</text>

  <circle cx="420" cy="350" r="8" class="joint"/>
  <text x="420" y="365" class="joint-label">right_hip</text>

  <!-- Knee Joints -->
  <circle cx="380" cy="450" r="8" class="joint"/>
  <text x="380" y="465" class="joint-label">left_knee</text>

  <circle cx="420" cy="450" r="8" class="joint"/>
  <text x="420" y="465" class="joint-label">right_knee</text>

  <!-- Ankle Joints -->
  <circle cx="380" cy="530" r="8" class="joint"/>
  <text x="380" y="545" class="joint-label">left_ankle</text>

  <circle cx="420" cy="530" r="8" class="joint"/>
  <text x="420" y="545" class="joint-label">right_ankle</text>

  <!-- Feet -->
  <rect x="360" y="530" width="40" height="15" class="leg"/>
  <text x="380" y="555" class="text">left_foot</text>

  <rect x="400" y="530" width="40" height="15" class="leg"/>
  <text x="420" y="555" class="text">right_foot</text>

  <!-- Coordinate Frame Indicators -->
  <line x1="350" y1="500" x2="370" y1="500" stroke="red" stroke-width="2" marker-end="url(#arrowhead)"/>
  <text x="360" y="495" class="text" font-size="10px">X</text>

  <line x1="350" y1="500" x2="350" y1="480" stroke="green" stroke-width="2" marker-end="url(#arrowhead)"/>
  <text x="345" y="490" class="text" font-size="10px">Y</text>

  <line x1="350" y1="500" x2="360" y1="490" stroke="blue" stroke-width="2" marker-end="url(#arrowhead)"/>
  <text x="355" y="485" class="text" font-size="10px">Z</text>

  <!-- Arrowhead definition -->
  <defs>
    <marker id="arrowhead" markerWidth="10" markerHeight="7"
      refX="0" refY="3.5" orient="auto">
      <polygon points="0 0, 10 3.5, 0 7" fill="black" />
    </marker>
  </defs>

  <!-- Legend -->
  <text x="650" y="80" class="text" font-weight="bold">Legend:</text>
  <rect x="620" y="100" width="20" height="20" class="base"/>
  <text x="670" y="110" class="text" font-size="12px">Link (Body Part)</text>

  <circle cx="630" cy="140" r="8" class="joint"/>
  <text x="670" y="140" class="text" font-size="12px">Joint</text>
</svg>